<?xml version="1.0" standalone="no"?>
<!DOCTYPE svg PUBLIC "-//W3C//DTD SVG 20010904//EN"
 "http://www.w3.org/TR/2001/REC-SVG-20010904/DTD/svg10.dtd">
<svg version="1.0" xmlns="http://www.w3.org/2000/svg"
 width="700.000000pt" height="700.000000pt" viewBox="0 0 700.000000 700.000000"
 preserveAspectRatio="xMidYMid meet">
<metadata>
Created by potrace 1.14, written by Peter Selinger 2001-2017
</metadata>
<g transform="translate(0.000000,700.000000) scale(0.100000,-0.100000)"
fill="#000000" stroke="none">
<path d="M2180 5389 c-112 -13 -147 -20 -248 -44 -531 -129 -956 -492 -1174
-1005 -47 -110 -103 -301 -122 -415 -8 -49 -18 -108 -21 -130 -14 -81 -13
-498 0 -605 34 -266 81 -431 180 -635 155 -319 392 -559 712 -719 142 -71 353
-137 520 -162 21 -3 48 -7 60 -9 135 -22 455 -23 588 -1 54 8 129 26 180 42
72 23 252 115 364 186 53 33 117 74 143 90 50 33 107 39 135 17 18 -16 52 -90
58 -128 16 -101 22 -142 21 -149 -1 -4 25 -7 57 -8 l58 0 -6 205 c-3 113 -8
401 -10 640 -3 238 -7 437 -10 440 -4 7 -104 6 -110 -1 -1 -2 -5 -37 -9 -78
-13 -144 -49 -355 -82 -469 -57 -199 -127 -301 -314 -461 -115 -98 -280 -179
-426 -207 -80 -16 -325 -9 -399 11 -245 65 -452 251 -588 528 -74 149 -148
378 -171 528 -3 19 -8 46 -10 59 -3 13 -8 49 -11 80 -4 31 -8 63 -10 71 -13
51 -20 221 -20 465 1 317 5 365 50 625 30 174 29 167 71 306 133 438 376 717
691 790 91 21 249 25 353 9 206 -32 328 -90 486 -230 131 -115 177 -172 233
-281 31 -61 86 -216 95 -269 3 -16 10 -55 17 -85 6 -30 18 -109 28 -175 l17
-120 57 0 57 -1 1 171 c1 231 6 563 14 838 l6 228 -58 -3 -57 -3 -13 -88 c-19
-132 -57 -206 -108 -211 -37 -3 -73 14 -145 69 -133 100 -350 214 -485 253
-119 35 -246 49 -423 49 -92 -1 -192 -4 -222 -8z"/>
<path d="M4958 5395 c-2 -2 -32 -6 -67 -9 -105 -11 -273 -50 -346 -81 -16 -7
-61 -25 -100 -41 -133 -54 -304 -191 -382 -305 -55 -81 -99 -193 -120 -304
-10 -51 -10 -315 -1 -381 10 -64 51 -190 83 -253 98 -195 317 -392 765 -691
412 -275 556 -393 664 -545 111 -155 151 -278 147 -455 -5 -266 -163 -460
-431 -529 -61 -17 -101 -20 -220 -17 -150 3 -225 17 -325 59 -181 76 -351 270
-446 510 -53 132 -107 369 -125 544 -3 32 -7 67 -9 78 -2 11 -4 35 -4 53 l-1
33 -57 -3 -58 -3 -2 -190 c-6 -619 -14 -1114 -18 -1147 l-5 -38 60 0 c65 0 63
-3 75 82 2 20 12 56 21 79 31 77 94 80 216 11 102 -57 313 -141 408 -163 124
-29 264 -42 435 -42 447 -1 787 116 1021 350 67 66 154 180 154 200 0 5 5 14
11 20 14 14 55 128 69 188 23 102 30 275 16 380 -42 305 -205 533 -577 808
-30 22 -169 118 -546 377 -248 171 -316 223 -404 310 -93 91 -112 116 -147
190 -48 102 -64 180 -61 299 6 310 222 502 564 503 146 0 303 -48 400 -122 53
-41 162 -152 205 -209 91 -122 194 -367 224 -534 3 -15 10 -53 15 -85 6 -31
12 -74 13 -94 2 -41 8 -45 53 -43 17 2 39 3 50 4 20 1 20 8 21 344 0 302 5
495 20 745 l4 73 -57 -3 -57 -3 -16 -70 c-29 -123 -58 -158 -125 -148 -16 2
-82 33 -145 68 -63 34 -135 72 -160 83 -25 11 -66 29 -92 40 -59 26 -194 59
-273 68 -57 6 -332 13 -337 9z"/>
</g>
</svg>
